<svg xmlns="http://www.w3.org/2000/svg" height="20" viewBox="0 -960 960 960" width="20"><path d="M462.477-87.912q-77.565-3.392-145.848-35.185-68.282-31.794-119.802-85.205-51.519-53.411-80.5-123.166-28.98-69.755-28.98-149.065 0-81.36 30.663-152.283 30.663-70.924 84.648-124.987 53.984-54.063 125.406-84.739 71.423-30.676 152.629-30.676 146.286 0 253.251 91.971t133.34 230.682h-94.883q-16.167-70.218-62.909-124.247-46.743-54.029-113.188-81.97v21.869q0 28.588-20.856 48.946-20.856 20.358-49.318 20.358h-92v44.136q0 20.004-13.799 33.804-13.801 13.799-33.804 13.799h-45.136v92.74H389v92.173h-47.739L187.348-542.87q-2.625 15.185-4.812 30.37-2.188 15.185-2.188 31.37 0 121.717 82.152 207.608t199.977 92.609v93Zm351.914-14.478L692.826-224.521q-19.935 12.305-40.921 17.924-20.987 5.62-43.535 5.62-72.305 0-123.37-51.106T433.935-375.65q0-72.462 51.105-123.156Q536.146-549.5 608.608-549.5q72.462 0 123.156 50.661 50.693 50.662 50.693 123.035 0 22.522-5.619 44.141-5.62 21.62-17.924 41.554l122.131 121.066-66.654 66.653ZM608.218-293.979q33.901 0 57.57-23.571 23.668-23.572 23.668-57.711 0-33.901-23.41-57.569-23.41-23.669-57.315-23.669-33.904 0-57.85 23.41-23.945 23.411-23.945 57.315 0 33.904 23.572 57.85 23.572 23.945 57.71 23.945Z"/></svg>